<mxfile host="app.diagrams.net" modified="2024-02-20T15:30:05.038Z" agent="Mozilla/5.0 (X11; Ubuntu; Linux x86_64; rv:123.0) Gecko/20100101 Firefox/123.0" etag="KLtPPrA8QBHo9jF9YkHi" version="23.1.4" type="device">
  <diagram name="Page-1" id="7MAW4Ok9PyOAf3gbM8Nc">
    <mxGraphModel dx="3186" dy="2069" grid="1" gridSize="10" guides="1" tooltips="1" connect="1" arrows="1" fold="1" page="1" pageScale="1" pageWidth="827" pageHeight="1169" math="0" shadow="0">
      <root>
        <mxCell id="0" />
        <mxCell id="1" parent="0" />
        <mxCell id="iYEEN1SFcOfQrYxXXygI-125" value="" style="whiteSpace=wrap;html=1;aspect=fixed;glass=1;rounded=0;shadow=0;fillColor=none;strokeColor=#d79b00;fontStyle=1;fontSize=14;" vertex="1" parent="1">
          <mxGeometry x="-611" y="-810" width="620" height="620" as="geometry" />
        </mxCell>
        <mxCell id="iYEEN1SFcOfQrYxXXygI-104" value="" style="whiteSpace=wrap;html=1;aspect=fixed;glass=1;rounded=0;shadow=0;fillColor=none;strokeColor=#d79b00;" vertex="1" parent="1">
          <mxGeometry x="-1314" y="-810" width="620" height="620" as="geometry" />
        </mxCell>
        <mxCell id="iYEEN1SFcOfQrYxXXygI-85" value="IFormes" style="swimlane;fontStyle=1;childLayout=stackLayout;horizontal=1;startSize=26;fillColor=none;horizontalStack=0;resizeParent=1;resizeParentMax=0;resizeLast=0;collapsible=1;marginBottom=0;whiteSpace=wrap;html=1;fontSize=14;" vertex="1" parent="1">
          <mxGeometry x="-1057" y="-530" width="140" height="104" as="geometry" />
        </mxCell>
        <mxCell id="iYEEN1SFcOfQrYxXXygI-86" value="+ field: type" style="text;strokeColor=none;fillColor=none;align=left;verticalAlign=top;spacingLeft=4;spacingRight=4;overflow=hidden;rotatable=0;points=[[0,0.5],[1,0.5]];portConstraint=eastwest;whiteSpace=wrap;html=1;" vertex="1" parent="iYEEN1SFcOfQrYxXXygI-85">
          <mxGeometry y="26" width="140" height="26" as="geometry" />
        </mxCell>
        <mxCell id="iYEEN1SFcOfQrYxXXygI-87" value="+ field: type" style="text;strokeColor=none;fillColor=none;align=left;verticalAlign=top;spacingLeft=4;spacingRight=4;overflow=hidden;rotatable=0;points=[[0,0.5],[1,0.5]];portConstraint=eastwest;whiteSpace=wrap;html=1;" vertex="1" parent="iYEEN1SFcOfQrYxXXygI-85">
          <mxGeometry y="52" width="140" height="26" as="geometry" />
        </mxCell>
        <mxCell id="iYEEN1SFcOfQrYxXXygI-88" value="+ field: type" style="text;strokeColor=none;fillColor=none;align=left;verticalAlign=top;spacingLeft=4;spacingRight=4;overflow=hidden;rotatable=0;points=[[0,0.5],[1,0.5]];portConstraint=eastwest;whiteSpace=wrap;html=1;" vertex="1" parent="iYEEN1SFcOfQrYxXXygI-85">
          <mxGeometry y="78" width="140" height="26" as="geometry" />
        </mxCell>
        <mxCell id="iYEEN1SFcOfQrYxXXygI-89" value="RectangleModel" style="swimlane;fontStyle=1;childLayout=stackLayout;horizontal=1;startSize=26;fillColor=none;horizontalStack=0;resizeParent=1;resizeParentMax=0;resizeLast=0;collapsible=1;marginBottom=0;whiteSpace=wrap;html=1;fontSize=14;" vertex="1" parent="1">
          <mxGeometry x="-1305" y="-530" width="140" height="104" as="geometry" />
        </mxCell>
        <mxCell id="iYEEN1SFcOfQrYxXXygI-90" value="+ field: type" style="text;strokeColor=none;fillColor=none;align=left;verticalAlign=top;spacingLeft=4;spacingRight=4;overflow=hidden;rotatable=0;points=[[0,0.5],[1,0.5]];portConstraint=eastwest;whiteSpace=wrap;html=1;" vertex="1" parent="iYEEN1SFcOfQrYxXXygI-89">
          <mxGeometry y="26" width="140" height="26" as="geometry" />
        </mxCell>
        <mxCell id="iYEEN1SFcOfQrYxXXygI-91" value="+ field: type" style="text;strokeColor=none;fillColor=none;align=left;verticalAlign=top;spacingLeft=4;spacingRight=4;overflow=hidden;rotatable=0;points=[[0,0.5],[1,0.5]];portConstraint=eastwest;whiteSpace=wrap;html=1;" vertex="1" parent="iYEEN1SFcOfQrYxXXygI-89">
          <mxGeometry y="52" width="140" height="26" as="geometry" />
        </mxCell>
        <mxCell id="iYEEN1SFcOfQrYxXXygI-92" value="+ field: type" style="text;strokeColor=none;fillColor=none;align=left;verticalAlign=top;spacingLeft=4;spacingRight=4;overflow=hidden;rotatable=0;points=[[0,0.5],[1,0.5]];portConstraint=eastwest;whiteSpace=wrap;html=1;" vertex="1" parent="iYEEN1SFcOfQrYxXXygI-89">
          <mxGeometry y="78" width="140" height="26" as="geometry" />
        </mxCell>
        <mxCell id="iYEEN1SFcOfQrYxXXygI-93" style="edgeStyle=orthogonalEdgeStyle;rounded=0;orthogonalLoop=1;jettySize=auto;html=1;endArrow=block;endFill=0;" edge="1" source="iYEEN1SFcOfQrYxXXygI-94" target="iYEEN1SFcOfQrYxXXygI-85" parent="1">
          <mxGeometry relative="1" as="geometry" />
        </mxCell>
        <mxCell id="iYEEN1SFcOfQrYxXXygI-94" value="FormesContainer" style="swimlane;fontStyle=1;childLayout=stackLayout;horizontal=1;startSize=26;fillColor=none;horizontalStack=0;resizeParent=1;resizeParentMax=0;resizeLast=0;collapsible=1;marginBottom=0;whiteSpace=wrap;html=1;fontSize=14;" vertex="1" parent="1">
          <mxGeometry x="-1057" y="-775" width="164" height="104" as="geometry" />
        </mxCell>
        <mxCell id="iYEEN1SFcOfQrYxXXygI-95" value="+ field: type" style="text;strokeColor=none;fillColor=none;align=left;verticalAlign=top;spacingLeft=4;spacingRight=4;overflow=hidden;rotatable=0;points=[[0,0.5],[1,0.5]];portConstraint=eastwest;whiteSpace=wrap;html=1;" vertex="1" parent="iYEEN1SFcOfQrYxXXygI-94">
          <mxGeometry y="26" width="164" height="26" as="geometry" />
        </mxCell>
        <mxCell id="iYEEN1SFcOfQrYxXXygI-96" value="+ field: type" style="text;strokeColor=none;fillColor=none;align=left;verticalAlign=top;spacingLeft=4;spacingRight=4;overflow=hidden;rotatable=0;points=[[0,0.5],[1,0.5]];portConstraint=eastwest;whiteSpace=wrap;html=1;" vertex="1" parent="iYEEN1SFcOfQrYxXXygI-94">
          <mxGeometry y="52" width="164" height="26" as="geometry" />
        </mxCell>
        <mxCell id="iYEEN1SFcOfQrYxXXygI-97" value="+ field: type" style="text;strokeColor=none;fillColor=none;align=left;verticalAlign=top;spacingLeft=4;spacingRight=4;overflow=hidden;rotatable=0;points=[[0,0.5],[1,0.5]];portConstraint=eastwest;whiteSpace=wrap;html=1;" vertex="1" parent="iYEEN1SFcOfQrYxXXygI-94">
          <mxGeometry y="78" width="164" height="26" as="geometry" />
        </mxCell>
        <mxCell id="iYEEN1SFcOfQrYxXXygI-98" value="CercleModel" style="swimlane;fontStyle=1;childLayout=stackLayout;horizontal=1;startSize=26;fillColor=none;horizontalStack=0;resizeParent=1;resizeParentMax=0;resizeLast=0;collapsible=1;marginBottom=0;whiteSpace=wrap;html=1;fontSize=14;" vertex="1" parent="1">
          <mxGeometry x="-1054" y="-307" width="140" height="104" as="geometry" />
        </mxCell>
        <mxCell id="iYEEN1SFcOfQrYxXXygI-99" value="+ field: type" style="text;strokeColor=none;fillColor=none;align=left;verticalAlign=top;spacingLeft=4;spacingRight=4;overflow=hidden;rotatable=0;points=[[0,0.5],[1,0.5]];portConstraint=eastwest;whiteSpace=wrap;html=1;" vertex="1" parent="iYEEN1SFcOfQrYxXXygI-98">
          <mxGeometry y="26" width="140" height="26" as="geometry" />
        </mxCell>
        <mxCell id="iYEEN1SFcOfQrYxXXygI-100" value="+ field: type" style="text;strokeColor=none;fillColor=none;align=left;verticalAlign=top;spacingLeft=4;spacingRight=4;overflow=hidden;rotatable=0;points=[[0,0.5],[1,0.5]];portConstraint=eastwest;whiteSpace=wrap;html=1;" vertex="1" parent="iYEEN1SFcOfQrYxXXygI-98">
          <mxGeometry y="52" width="140" height="26" as="geometry" />
        </mxCell>
        <mxCell id="iYEEN1SFcOfQrYxXXygI-101" value="+ field: type" style="text;strokeColor=none;fillColor=none;align=left;verticalAlign=top;spacingLeft=4;spacingRight=4;overflow=hidden;rotatable=0;points=[[0,0.5],[1,0.5]];portConstraint=eastwest;whiteSpace=wrap;html=1;" vertex="1" parent="iYEEN1SFcOfQrYxXXygI-98">
          <mxGeometry y="78" width="140" height="26" as="geometry" />
        </mxCell>
        <mxCell id="iYEEN1SFcOfQrYxXXygI-102" value="" style="endArrow=block;dashed=1;endFill=0;endSize=12;html=1;rounded=0;exitX=0.5;exitY=0;exitDx=0;exitDy=0;" edge="1" source="iYEEN1SFcOfQrYxXXygI-98" target="iYEEN1SFcOfQrYxXXygI-85" parent="1">
          <mxGeometry width="160" relative="1" as="geometry">
            <mxPoint x="-544" y="-220" as="sourcePoint" />
            <mxPoint x="-384" y="-220" as="targetPoint" />
          </mxGeometry>
        </mxCell>
        <mxCell id="iYEEN1SFcOfQrYxXXygI-103" value="" style="endArrow=block;dashed=1;endFill=0;endSize=12;html=1;rounded=0;" edge="1" source="iYEEN1SFcOfQrYxXXygI-89" target="iYEEN1SFcOfQrYxXXygI-85" parent="1">
          <mxGeometry width="160" relative="1" as="geometry">
            <mxPoint x="-961" y="-260" as="sourcePoint" />
            <mxPoint x="-928" y="-396" as="targetPoint" />
          </mxGeometry>
        </mxCell>
        <mxCell id="iYEEN1SFcOfQrYxXXygI-105" value="&lt;b&gt;&lt;font style=&quot;font-size: 19px;&quot;&gt;Model&lt;/font&gt;&lt;/b&gt;" style="text;html=1;align=center;verticalAlign=middle;whiteSpace=wrap;rounded=0;fontFamily=Helvetica;fontSize=12;fontColor=default;" vertex="1" parent="1">
          <mxGeometry x="-1314" y="-810" width="60" height="30" as="geometry" />
        </mxCell>
        <mxCell id="iYEEN1SFcOfQrYxXXygI-106" value="IView" style="swimlane;fontStyle=1;childLayout=stackLayout;horizontal=1;startSize=26;fillColor=none;horizontalStack=0;resizeParent=1;resizeParentMax=0;resizeLast=0;collapsible=1;marginBottom=0;whiteSpace=wrap;html=1;fontSize=14;" vertex="1" parent="1">
          <mxGeometry x="-510" y="-557.5" width="140" height="104" as="geometry" />
        </mxCell>
        <mxCell id="iYEEN1SFcOfQrYxXXygI-107" value="+ field: type" style="text;strokeColor=none;fillColor=none;align=left;verticalAlign=top;spacingLeft=4;spacingRight=4;overflow=hidden;rotatable=0;points=[[0,0.5],[1,0.5]];portConstraint=eastwest;whiteSpace=wrap;html=1;" vertex="1" parent="iYEEN1SFcOfQrYxXXygI-106">
          <mxGeometry y="26" width="140" height="26" as="geometry" />
        </mxCell>
        <mxCell id="iYEEN1SFcOfQrYxXXygI-108" value="+ field: type" style="text;strokeColor=none;fillColor=none;align=left;verticalAlign=top;spacingLeft=4;spacingRight=4;overflow=hidden;rotatable=0;points=[[0,0.5],[1,0.5]];portConstraint=eastwest;whiteSpace=wrap;html=1;" vertex="1" parent="iYEEN1SFcOfQrYxXXygI-106">
          <mxGeometry y="52" width="140" height="26" as="geometry" />
        </mxCell>
        <mxCell id="iYEEN1SFcOfQrYxXXygI-109" value="+ field: type" style="text;strokeColor=none;fillColor=none;align=left;verticalAlign=top;spacingLeft=4;spacingRight=4;overflow=hidden;rotatable=0;points=[[0,0.5],[1,0.5]];portConstraint=eastwest;whiteSpace=wrap;html=1;" vertex="1" parent="iYEEN1SFcOfQrYxXXygI-106">
          <mxGeometry y="78" width="140" height="26" as="geometry" />
        </mxCell>
        <mxCell id="iYEEN1SFcOfQrYxXXygI-110" value="RectangleView" style="swimlane;fontStyle=1;childLayout=stackLayout;horizontal=1;startSize=26;fillColor=none;horizontalStack=0;resizeParent=1;resizeParentMax=0;resizeLast=0;collapsible=1;marginBottom=0;whiteSpace=wrap;html=1;fontSize=14;" vertex="1" parent="1">
          <mxGeometry x="-260" y="-550" width="140" height="104" as="geometry" />
        </mxCell>
        <mxCell id="iYEEN1SFcOfQrYxXXygI-111" value="+ field: type" style="text;strokeColor=none;fillColor=none;align=left;verticalAlign=top;spacingLeft=4;spacingRight=4;overflow=hidden;rotatable=0;points=[[0,0.5],[1,0.5]];portConstraint=eastwest;whiteSpace=wrap;html=1;" vertex="1" parent="iYEEN1SFcOfQrYxXXygI-110">
          <mxGeometry y="26" width="140" height="26" as="geometry" />
        </mxCell>
        <mxCell id="iYEEN1SFcOfQrYxXXygI-112" value="+ field: type" style="text;strokeColor=none;fillColor=none;align=left;verticalAlign=top;spacingLeft=4;spacingRight=4;overflow=hidden;rotatable=0;points=[[0,0.5],[1,0.5]];portConstraint=eastwest;whiteSpace=wrap;html=1;" vertex="1" parent="iYEEN1SFcOfQrYxXXygI-110">
          <mxGeometry y="52" width="140" height="26" as="geometry" />
        </mxCell>
        <mxCell id="iYEEN1SFcOfQrYxXXygI-113" value="+ field: type" style="text;strokeColor=none;fillColor=none;align=left;verticalAlign=top;spacingLeft=4;spacingRight=4;overflow=hidden;rotatable=0;points=[[0,0.5],[1,0.5]];portConstraint=eastwest;whiteSpace=wrap;html=1;" vertex="1" parent="iYEEN1SFcOfQrYxXXygI-110">
          <mxGeometry y="78" width="140" height="26" as="geometry" />
        </mxCell>
        <mxCell id="iYEEN1SFcOfQrYxXXygI-114" style="edgeStyle=orthogonalEdgeStyle;rounded=0;orthogonalLoop=1;jettySize=auto;html=1;" edge="1" source="iYEEN1SFcOfQrYxXXygI-115" target="iYEEN1SFcOfQrYxXXygI-106" parent="1">
          <mxGeometry relative="1" as="geometry" />
        </mxCell>
        <mxCell id="iYEEN1SFcOfQrYxXXygI-115" value="ViewContainer" style="swimlane;fontStyle=1;childLayout=stackLayout;horizontal=1;startSize=26;fillColor=none;horizontalStack=0;resizeParent=1;resizeParentMax=0;resizeLast=0;collapsible=1;marginBottom=0;whiteSpace=wrap;html=1;fontSize=14;" vertex="1" parent="1">
          <mxGeometry x="-300" y="-775" width="140" height="104" as="geometry" />
        </mxCell>
        <mxCell id="iYEEN1SFcOfQrYxXXygI-116" value="+ field: type" style="text;strokeColor=none;fillColor=none;align=left;verticalAlign=top;spacingLeft=4;spacingRight=4;overflow=hidden;rotatable=0;points=[[0,0.5],[1,0.5]];portConstraint=eastwest;whiteSpace=wrap;html=1;" vertex="1" parent="iYEEN1SFcOfQrYxXXygI-115">
          <mxGeometry y="26" width="140" height="26" as="geometry" />
        </mxCell>
        <mxCell id="iYEEN1SFcOfQrYxXXygI-117" value="+ field: type" style="text;strokeColor=none;fillColor=none;align=left;verticalAlign=top;spacingLeft=4;spacingRight=4;overflow=hidden;rotatable=0;points=[[0,0.5],[1,0.5]];portConstraint=eastwest;whiteSpace=wrap;html=1;" vertex="1" parent="iYEEN1SFcOfQrYxXXygI-115">
          <mxGeometry y="52" width="140" height="26" as="geometry" />
        </mxCell>
        <mxCell id="iYEEN1SFcOfQrYxXXygI-118" value="+ field: type" style="text;strokeColor=none;fillColor=none;align=left;verticalAlign=top;spacingLeft=4;spacingRight=4;overflow=hidden;rotatable=0;points=[[0,0.5],[1,0.5]];portConstraint=eastwest;whiteSpace=wrap;html=1;" vertex="1" parent="iYEEN1SFcOfQrYxXXygI-115">
          <mxGeometry y="78" width="140" height="26" as="geometry" />
        </mxCell>
        <mxCell id="iYEEN1SFcOfQrYxXXygI-119" value="CercleView" style="swimlane;fontStyle=1;childLayout=stackLayout;horizontal=1;startSize=26;fillColor=none;horizontalStack=0;resizeParent=1;resizeParentMax=0;resizeLast=0;collapsible=1;marginBottom=0;whiteSpace=wrap;html=1;fontSize=14;" vertex="1" parent="1">
          <mxGeometry x="-510" y="-330" width="140" height="104" as="geometry" />
        </mxCell>
        <mxCell id="iYEEN1SFcOfQrYxXXygI-120" value="+ field: type" style="text;strokeColor=none;fillColor=none;align=left;verticalAlign=top;spacingLeft=4;spacingRight=4;overflow=hidden;rotatable=0;points=[[0,0.5],[1,0.5]];portConstraint=eastwest;whiteSpace=wrap;html=1;" vertex="1" parent="iYEEN1SFcOfQrYxXXygI-119">
          <mxGeometry y="26" width="140" height="26" as="geometry" />
        </mxCell>
        <mxCell id="iYEEN1SFcOfQrYxXXygI-121" value="+ field: type" style="text;strokeColor=none;fillColor=none;align=left;verticalAlign=top;spacingLeft=4;spacingRight=4;overflow=hidden;rotatable=0;points=[[0,0.5],[1,0.5]];portConstraint=eastwest;whiteSpace=wrap;html=1;" vertex="1" parent="iYEEN1SFcOfQrYxXXygI-119">
          <mxGeometry y="52" width="140" height="26" as="geometry" />
        </mxCell>
        <mxCell id="iYEEN1SFcOfQrYxXXygI-122" value="+ field: type" style="text;strokeColor=none;fillColor=none;align=left;verticalAlign=top;spacingLeft=4;spacingRight=4;overflow=hidden;rotatable=0;points=[[0,0.5],[1,0.5]];portConstraint=eastwest;whiteSpace=wrap;html=1;" vertex="1" parent="iYEEN1SFcOfQrYxXXygI-119">
          <mxGeometry y="78" width="140" height="26" as="geometry" />
        </mxCell>
        <mxCell id="iYEEN1SFcOfQrYxXXygI-123" value="" style="endArrow=block;dashed=1;endFill=0;endSize=12;html=1;rounded=0;exitX=0.5;exitY=0;exitDx=0;exitDy=0;" edge="1" source="iYEEN1SFcOfQrYxXXygI-119" target="iYEEN1SFcOfQrYxXXygI-106" parent="1">
          <mxGeometry width="160" relative="1" as="geometry">
            <mxPoint x="201" y="-259" as="sourcePoint" />
            <mxPoint x="361" y="-259" as="targetPoint" />
          </mxGeometry>
        </mxCell>
        <mxCell id="iYEEN1SFcOfQrYxXXygI-124" value="" style="endArrow=block;dashed=1;endFill=0;endSize=12;html=1;rounded=0;" edge="1" source="iYEEN1SFcOfQrYxXXygI-110" target="iYEEN1SFcOfQrYxXXygI-106" parent="1">
          <mxGeometry width="160" relative="1" as="geometry">
            <mxPoint x="-216" y="-299" as="sourcePoint" />
            <mxPoint x="-183" y="-435" as="targetPoint" />
          </mxGeometry>
        </mxCell>
        <mxCell id="iYEEN1SFcOfQrYxXXygI-126" value="&lt;b style=&quot;font-size: 18px;&quot;&gt;View&lt;br&gt;&lt;/b&gt;" style="text;html=1;align=center;verticalAlign=middle;whiteSpace=wrap;rounded=0;fontFamily=Helvetica;fontSize=12;fontColor=default;" vertex="1" parent="1">
          <mxGeometry x="-51" y="-810" width="60" height="30" as="geometry" />
        </mxCell>
        <mxCell id="iYEEN1SFcOfQrYxXXygI-127" value="&lt;b&gt;&lt;font style=&quot;font-size: 17px;&quot;&gt;*&lt;/font&gt;&lt;/b&gt;" style="text;html=1;align=center;verticalAlign=middle;whiteSpace=wrap;rounded=0;fontFamily=Helvetica;fontSize=12;fontColor=default;" vertex="1" parent="1">
          <mxGeometry x="-990" y="-557.5" width="20" height="30" as="geometry" />
        </mxCell>
        <mxCell id="iYEEN1SFcOfQrYxXXygI-128" value="&lt;b&gt;&lt;font style=&quot;font-size: 17px;&quot;&gt;*&lt;/font&gt;&lt;/b&gt;" style="text;html=1;align=center;verticalAlign=middle;whiteSpace=wrap;rounded=0;fontFamily=Helvetica;fontSize=12;fontColor=default;" vertex="1" parent="1">
          <mxGeometry x="-460" y="-587.5" width="20" height="30" as="geometry" />
        </mxCell>
        <mxCell id="iYEEN1SFcOfQrYxXXygI-129" value="&lt;b&gt;&lt;font color=&quot;#ed333b&quot; style=&quot;font-size: 14px;&quot;&gt;Écoute&lt;/font&gt;&lt;/b&gt;" style="endArrow=open;endSize=12;dashed=1;html=1;rounded=0;fontFamily=Helvetica;fontSize=12;fontColor=default;fillColor=#f8cecc;strokeColor=#b85450;strokeWidth=3;" edge="1" parent="1" source="iYEEN1SFcOfQrYxXXygI-115" target="iYEEN1SFcOfQrYxXXygI-94">
          <mxGeometry x="-0.1526" y="-18" width="160" relative="1" as="geometry">
            <mxPoint x="-308.8599999999997" y="-742.96" as="sourcePoint" />
            <mxPoint x="-890" y="-721.9627529631753" as="targetPoint" />
            <mxPoint x="-1" as="offset" />
          </mxGeometry>
        </mxCell>
        <mxCell id="iYEEN1SFcOfQrYxXXygI-130" value="&lt;b&gt;&lt;font color=&quot;#ed333b&quot; style=&quot;font-size: 14px;&quot;&gt;Écoute&lt;/font&gt;&lt;/b&gt;" style="endArrow=open;endSize=12;dashed=1;html=1;rounded=0;fontFamily=Helvetica;fontSize=12;fontColor=default;fillColor=#f8cecc;strokeColor=#b85450;strokeWidth=3;entryX=0.443;entryY=0.021;entryDx=0;entryDy=0;entryPerimeter=0;" edge="1" parent="1" source="iYEEN1SFcOfQrYxXXygI-94" target="iYEEN1SFcOfQrYxXXygI-89">
          <mxGeometry x="-0.1526" y="-18" width="160" relative="1" as="geometry">
            <mxPoint x="-290" y="-713" as="sourcePoint" />
            <mxPoint x="-880" y="-711.9627529631753" as="targetPoint" />
            <Array as="points">
              <mxPoint x="-1240" y="-720" />
            </Array>
            <mxPoint x="-1" as="offset" />
          </mxGeometry>
        </mxCell>
        <mxCell id="iYEEN1SFcOfQrYxXXygI-132" value="&lt;b&gt;&lt;font color=&quot;#ed333b&quot; style=&quot;font-size: 14px;&quot;&gt;Écoute&lt;/font&gt;&lt;/b&gt;" style="endArrow=open;endSize=12;dashed=1;html=1;rounded=0;fontFamily=Helvetica;fontSize=12;fontColor=default;fillColor=#f8cecc;strokeColor=#b85450;strokeWidth=3;" edge="1" parent="1" source="iYEEN1SFcOfQrYxXXygI-97" target="iYEEN1SFcOfQrYxXXygI-98">
          <mxGeometry x="-0.1577" y="40" width="160" relative="1" as="geometry">
            <mxPoint x="-680" y="-430" as="sourcePoint" />
            <mxPoint x="-870" y="-236" as="targetPoint" />
            <Array as="points">
              <mxPoint x="-830" y="-684" />
              <mxPoint x="-830" y="-420" />
              <mxPoint x="-830" y="-260" />
            </Array>
            <mxPoint as="offset" />
          </mxGeometry>
        </mxCell>
      </root>
    </mxGraphModel>
  </diagram>
</mxfile>
